<?xml version="1.0" encoding="utf-8"?>
<!-- Generator: Adobe Illustrator 15.0.0, SVG Export Plug-In  -->
<!DOCTYPE svg PUBLIC "-//W3C//DTD SVG 1.1//EN" "http://www.w3.org/Graphics/SVG/1.1/DTD/svg11.dtd" [
	<!ENTITY ns_flows "http://ns.adobe.com/Flows/1.0/">
]>
<svg version="1.1"
	 xmlns="http://www.w3.org/2000/svg" xmlns:xlink="http://www.w3.org/1999/xlink" xmlns:a="http://ns.adobe.com/AdobeSVGViewerExtensions/3.0/"
	 x="0px" y="0px" width="1200px" height="300px" viewBox="-142.612 -30.912 1200 300"
	 overflow="visible" enable-background="new -142.612 -30.912 1200 300" xml:space="preserve">
<defs>
</defs>
<path fill="#FFFFFF" d="M6.834,40.334C2.278,35.778,0,30.196,0,23.584c0-6.608,2.278-12.194,6.834-16.75S16.972,0,23.584,0
	c6.608,0,12.194,2.278,16.75,6.834s6.834,10.142,6.834,16.75c0,6.612-2.278,12.194-6.834,16.75s-10.142,6.834-16.75,6.834
	C16.972,47.168,11.39,44.89,6.834,40.334z M43.684,202.876h-40.2V58.692h40.2V202.876z"/>
<path fill="#FFFFFF" d="M133.408,51.724v151.152H91.6V51.724H38.536v-36.18h147.936v36.18H133.408z"/>
<path fill="#FFFFFF" d="M312.938,15.544h41.808v187.332h-41.808L223.694,85.492v117.384h-41.808V15.544h39.128l91.924,120.601
	V15.544z"/>
<path fill="#FFFFFF" d="M490.377,181.972c-16.26,15.368-35.334,23.048-57.218,23.048c-21.888,0-39.979-6.741-54.27-20.233
	c-14.296-13.488-21.44-31.578-21.44-54.271c0-22.688,7.278-40.736,21.842-54.136c14.56-13.4,31.758-20.1,51.59-20.1
	s36.67,5.988,50.519,17.956c13.844,11.972,20.77,28.408,20.77,49.312v21.44H397.113c1.248,7.864,5.36,14.296,12.328,19.296
	c6.968,5.004,14.828,7.504,23.584,7.504c14.112,0,25.728-4.732,34.84-14.204L490.377,181.972z M451.785,96.48
	c-5.54-4.644-12.286-6.968-20.234-6.968c-7.952,0-15.234,2.412-21.842,7.236c-6.612,4.824-10.452,11.348-11.524,19.564h63.248
	C460.536,107.736,457.321,101.128,451.785,96.48z"/>
<path fill="#FFFFFF" d="M576.646,94.068c-11.972,0-20.904,4.246-26.8,12.73c-5.896,8.488-8.845,19.698-8.845,33.634v62.444h-40.199
	V58.692h40.199V77.72c5.181-5.896,11.658-10.896,19.431-15.008c7.771-4.108,15.678-6.252,23.718-6.432l0.268,37.788H576.646z"/>
<path fill="#FFFFFF" d="M700.058,202.876H662.27v-17.42c-10.364,13.044-23.182,19.563-38.458,19.563
	c-15.275,0-28.098-4.422-38.458-13.266c-10.364-8.844-15.544-20.636-15.544-35.376s5.36-25.771,16.08-33.099
	c10.72-7.323,25.368-10.987,43.952-10.987h30.016v-0.804c0-15.364-8.132-23.048-24.388-23.048c-6.968,0-14.338,1.386-22.11,4.154
	c-7.771,2.772-14.338,6.21-19.697,10.318l-17.956-25.996c18.936-13.756,40.556-20.636,64.855-20.636
	c17.508,0,31.8,4.38,42.88,13.132c11.076,8.756,16.616,22.604,16.616,41.54V202.876z M659.59,147.936v-6.968h-25.192
	c-16.08,0-24.12,5.004-24.12,15.008c0,5.185,1.918,9.158,5.763,11.927c3.84,2.771,9.334,4.153,16.481,4.153
	c7.145,0,13.442-2.186,18.895-6.565C656.863,161.114,659.59,155.264,659.59,147.936z"/>
<path fill="#FFFFFF" d="M781.448,94.068c-11.972,0-20.904,4.246-26.8,12.73c-5.896,8.488-8.845,19.698-8.845,33.634v62.444h-40.199
	V58.692h40.199V77.72c5.181-5.896,11.658-10.896,19.431-15.008c7.771-4.108,15.678-6.252,23.718-6.432l0.268,37.788H781.448z"/>
<path fill="#FFFFFF" d="M816.152,259.692c-14.116,0-27.429-5.721-39.933-17.152l18.225-29.748
	c6.788,6.607,13.756,9.916,20.904,9.916c3.752,0,6.968-1.834,9.647-5.494c2.68-3.664,4.021-7.55,4.021-11.658
	c0-4.107-18.585-53.063-55.744-146.864h42.88l35.107,89.78l35.108-89.78h42.88l-67,169.912c-3.932,9.824-10.05,17.462-18.357,22.914
	C835.582,256.966,826.336,259.692,816.152,259.692z"/>
</svg>
